# xmcd CD database file
#
# Track frame offsets:
#	150
#	20682
#	38993
#	54025
#	69758
#	91730
#	110024
#	127988
#	143627
#	158976
#
# Disc length: 2368 seconds
#
# Revision: 0
# Processed by: cddbd v1.5.2PL0 Copyright (c) Steve Scherf et al.
# Submitted via: CDex 1.70beta3
#
DISCID=78093e0a
DTITLE=Howlin' Hachima - Bowl It Baby
DYEAR=2003
DGENRE=Blues
TTITLE0=We are Howlin' Hachima
TTITLE1=Pretty Whiskey Blues
TTITLE2=Fo Fo Fo
TTITLE3=Sittin' on Top of the Rainbow
TTITLE4=Bring it down moan
TTITLE5=What's my name?
TTITLE6=Thirsty Blues
TTITLE7=When the trades go marching
TTITLE8=Maracas Baby
TTITLE9=New Orleans Stopm
EXTD=YEAR: 2003
EXTT0=
EXTT1=
EXTT2=
EXTT3=
EXTT4=
EXTT5=
EXTT6=
EXTT7=
EXTT8=
EXTT9=
PLAYORDER=
